<?xml version="1.0" encoding="us-ascii" standalone="no"?><svg xmlns="http://www.w3.org/2000/svg" xmlns:xlink="http://www.w3.org/1999/xlink" contentStyleType="text/css" height="647.9167px" preserveAspectRatio="none" style="width:907px;height:647px;" version="1.1" viewBox="0 0 907 647" width="907.2917px" zoomAndPan="magnify"><defs><linearGradient id="g1nu6c0uu83rl60" x1="50%" x2="50%" y1="0%" y2="100%"><stop offset="0%" stop-color="#59B6EC"/><stop offset="100%" stop-color="#2FA4E7"/></linearGradient><linearGradient id="g1nu6c0uu83rl61" x1="50%" x2="50%" y1="0%" y2="100%"><stop offset="0%" stop-color="#2FA4E7"/><stop offset="100%" stop-color="#2683B9"/></linearGradient></defs><g><!--class active_storage_attachments--><g id="elem_active_storage_attachments"><rect codeLine="3" fill="url(#g1nu6c0uu83rl60)" height="193.3675" id="active_storage_attachments" rx="4.1667" ry="4.1667" style="stroke:#2FA4E7;stroke-width:1.0416666666666667;" width="208.3333" x="17.7083" y="29.5833"/><rect fill="url(#g1nu6c0uu83rl61)" height="34.1715" rx="4.1667" ry="4.1667" style="stroke:url(#g1nu6c0uu83rl61);stroke-width:1.0416666666666667;" width="208.3333" x="17.7083" y="29.5833"/><rect fill="url(#g1nu6c0uu83rl61)" height="4.1667" style="stroke:url(#g1nu6c0uu83rl61);stroke-width:1.0416666666666667;" width="208.3333" x="17.7083" y="59.5882"/><rect codeLine="3" fill="none" height="193.3675" id="active_storage_attachments" rx="4.1667" ry="4.1667" style="stroke:#2FA4E7;stroke-width:1.0416666666666667;" width="208.3333" x="17.7083" y="29.5833"/><ellipse cx="32.2917" cy="46.6691" fill="none" rx="10.4167" ry="10.4167" style="stroke:#2683B9;stroke-width:1.0416666666666667;"/><path d="M34.8307,51.3566 L29.1504,51.3566 L29.1504,42.242 L34.8307,42.242 L34.8307,43.8371 L30.957,43.8371 L30.957,45.7902 L34.4564,45.7902 L34.4564,47.3853 L30.957,47.3853 L30.957,49.7616 L34.8307,49.7616 L34.8307,51.3566 Z " fill="#FFFFFF"/><text fill="#F8F9FA" font-family="Verdana" font-size="11.4583" lengthAdjust="spacing" textLength="166.6667" x="51.0417" y="50.6359">active_storage_attachments</text><line style="stroke:#2FA4E7;stroke-width:1.0416666666666667;" x1="18.75" x2="225" y1="63.7549" y2="63.7549"/><ellipse cx="29.1667" cy="81.3615" fill="none" rx="3.125" ry="3.125" style="stroke:#2683B9;stroke-width:1.0416666666666667;"/><text fill="#F8F9FA" font-family="Verdana" font-size="11.4583" lengthAdjust="spacing" textLength="51.0417" x="42.7083" y="83.7658">id: bigint</text><ellipse cx="29.1667" cy="105.1164" fill="none" rx="3.125" ry="3.125" style="stroke:#2683B9;stroke-width:1.0416666666666667;"/><text fill="#F8F9FA" font-family="Verdana" font-size="11.4583" lengthAdjust="spacing" textLength="76.0417" x="42.7083" y="107.5207">name: string</text><ellipse cx="29.1667" cy="128.8713" fill="none" rx="3.125" ry="3.125" style="stroke:#2683B9;stroke-width:1.0416666666666667;"/><text fill="#F8F9FA" font-family="Verdana" font-size="11.4583" lengthAdjust="spacing" textLength="112.5" x="42.7083" y="131.2755">record_type: string</text><ellipse cx="29.1667" cy="152.6261" fill="none" rx="3.125" ry="3.125" style="stroke:#2683B9;stroke-width:1.0416666666666667;"/><text fill="#F8F9FA" font-family="Verdana" font-size="11.4583" lengthAdjust="spacing" textLength="95.8333" x="42.7083" y="155.0304">record_id: bigint</text><ellipse cx="29.1667" cy="176.381" fill="none" rx="3.125" ry="3.125" style="stroke:#2683B9;stroke-width:1.0416666666666667;"/><text fill="#F8F9FA" font-family="Verdana" font-size="11.4583" lengthAdjust="spacing" textLength="82.2917" x="42.7083" y="178.7853">blob_id: bigint</text><ellipse cx="29.1667" cy="200.1359" fill="none" rx="3.125" ry="3.125" style="stroke:#2683B9;stroke-width:1.0416666666666667;"/><text fill="#F8F9FA" font-family="Verdana" font-size="11.4583" lengthAdjust="spacing" textLength="122.9167" x="42.7083" y="202.5402">created_at: datetime</text><line style="stroke:#2FA4E7;stroke-width:1.0416666666666667;" x1="18.75" x2="225" y1="214.6175" y2="214.6175"/></g><!--class active_storage_blobs--><g id="elem_active_storage_blobs"><rect codeLine="12" fill="url(#g1nu6c0uu83rl60)" height="264.6322" id="active_storage_blobs" rx="4.1667" ry="4.1667" style="stroke:#2FA4E7;stroke-width:1.0416666666666667;" width="166.6667" x="144.7917" y="347.125"/><rect fill="url(#g1nu6c0uu83rl61)" height="34.1715" rx="4.1667" ry="4.1667" style="stroke:url(#g1nu6c0uu83rl61);stroke-width:1.0416666666666667;" width="166.6667" x="144.7917" y="347.125"/><rect fill="url(#g1nu6c0uu83rl61)" height="4.1667" style="stroke:url(#g1nu6c0uu83rl61);stroke-width:1.0416666666666667;" width="166.6667" x="144.7917" y="377.1299"/><rect codeLine="12" fill="none" height="264.6322" id="active_storage_blobs" rx="4.1667" ry="4.1667" style="stroke:#2FA4E7;stroke-width:1.0416666666666667;" width="166.6667" x="144.7917" y="347.125"/><ellipse cx="159.375" cy="364.2108" fill="none" rx="10.4167" ry="10.4167" style="stroke:#2683B9;stroke-width:1.0416666666666667;"/><path d="M161.9141,368.8983 L156.2337,368.8983 L156.2337,359.7837 L161.9141,359.7837 L161.9141,361.3787 L158.0404,361.3787 L158.0404,363.3319 L161.5397,363.3319 L161.5397,364.9269 L158.0404,364.9269 L158.0404,367.3032 L161.9141,367.3032 L161.9141,368.8983 Z " fill="#FFFFFF"/><text fill="#F8F9FA" font-family="Verdana" font-size="11.4583" lengthAdjust="spacing" textLength="125" x="178.125" y="368.1776">active_storage_blobs</text><line style="stroke:#2FA4E7;stroke-width:1.0416666666666667;" x1="145.8333" x2="310.4167" y1="381.2965" y2="381.2965"/><ellipse cx="156.25" cy="398.9032" fill="none" rx="3.125" ry="3.125" style="stroke:#2683B9;stroke-width:1.0416666666666667;"/><text fill="#F8F9FA" font-family="Verdana" font-size="11.4583" lengthAdjust="spacing" textLength="51.0417" x="169.7917" y="401.3074">id: bigint</text><ellipse cx="156.25" cy="422.658" fill="none" rx="3.125" ry="3.125" style="stroke:#2683B9;stroke-width:1.0416666666666667;"/><text fill="#F8F9FA" font-family="Verdana" font-size="11.4583" lengthAdjust="spacing" textLength="62.5" x="169.7917" y="425.0623">key: string</text><ellipse cx="156.25" cy="446.4129" fill="none" rx="3.125" ry="3.125" style="stroke:#2683B9;stroke-width:1.0416666666666667;"/><text fill="#F8F9FA" font-family="Verdana" font-size="11.4583" lengthAdjust="spacing" textLength="93.75" x="169.7917" y="448.8172">filename: string</text><text fill="#F8F9FA" font-family="Verdana" font-size="11.4583" lengthAdjust="spacing" textLength="117.7083" x="169.7917" y="472.5721">content_type: string</text><text fill="#F8F9FA" font-family="Verdana" font-size="11.4583" lengthAdjust="spacing" textLength="86.4583" x="169.7917" y="496.327">metadata: text</text><ellipse cx="156.25" cy="517.6776" fill="none" rx="3.125" ry="3.125" style="stroke:#2683B9;stroke-width:1.0416666666666667;"/><text fill="#F8F9FA" font-family="Verdana" font-size="11.4583" lengthAdjust="spacing" textLength="125" x="169.7917" y="520.0818">service_name: string</text><ellipse cx="156.25" cy="541.4325" fill="none" rx="3.125" ry="3.125" style="stroke:#2683B9;stroke-width:1.0416666666666667;"/><text fill="#F8F9FA" font-family="Verdana" font-size="11.4583" lengthAdjust="spacing" textLength="94.7917" x="169.7917" y="543.8367">byte_size: bigint</text><text fill="#F8F9FA" font-family="Verdana" font-size="11.4583" lengthAdjust="spacing" textLength="102.0833" x="169.7917" y="567.5916">checksum: string</text><ellipse cx="156.25" cy="588.9422" fill="none" rx="3.125" ry="3.125" style="stroke:#2683B9;stroke-width:1.0416666666666667;"/><text fill="#F8F9FA" font-family="Verdana" font-size="11.4583" lengthAdjust="spacing" textLength="122.9167" x="169.7917" y="591.3465">created_at: datetime</text><line style="stroke:#2FA4E7;stroke-width:1.0416666666666667;" x1="145.8333" x2="310.4167" y1="603.4238" y2="603.4238"/></g><!--class active_storage_variant_records--><g id="elem_active_storage_variant_records"><rect codeLine="24" fill="url(#g1nu6c0uu83rl60)" height="122.1029" id="active_storage_variant_records" rx="4.1667" ry="4.1667" style="stroke:#2FA4E7;stroke-width:1.0416666666666667;" width="227.0833" x="262.5" y="65.2188"/><rect fill="url(#g1nu6c0uu83rl61)" height="34.1715" rx="4.1667" ry="4.1667" style="stroke:url(#g1nu6c0uu83rl61);stroke-width:1.0416666666666667;" width="227.0833" x="262.5" y="65.2188"/><rect fill="url(#g1nu6c0uu83rl61)" height="4.1667" style="stroke:url(#g1nu6c0uu83rl61);stroke-width:1.0416666666666667;" width="227.0833" x="262.5" y="95.2236"/><rect codeLine="24" fill="none" height="122.1029" id="active_storage_variant_records" rx="4.1667" ry="4.1667" style="stroke:#2FA4E7;stroke-width:1.0416666666666667;" width="227.0833" x="262.5" y="65.2188"/><ellipse cx="277.0833" cy="82.3045" fill="none" rx="10.4167" ry="10.4167" style="stroke:#2683B9;stroke-width:1.0416666666666667;"/><path d="M279.6224,86.992 L273.9421,86.992 L273.9421,77.8774 L279.6224,77.8774 L279.6224,79.4725 L275.7487,79.4725 L275.7487,81.4256 L279.248,81.4256 L279.248,83.0207 L275.7487,83.0207 L275.7487,85.397 L279.6224,85.397 L279.6224,86.992 Z " fill="#FFFFFF"/><text fill="#F8F9FA" font-family="Verdana" font-size="11.4583" lengthAdjust="spacing" textLength="185.4167" x="295.8333" y="86.2713">active_storage_variant_records</text><line style="stroke:#2FA4E7;stroke-width:1.0416666666666667;" x1="263.5417" x2="488.5417" y1="99.3903" y2="99.3903"/><ellipse cx="273.9583" cy="116.9969" fill="none" rx="3.125" ry="3.125" style="stroke:#2683B9;stroke-width:1.0416666666666667;"/><text fill="#F8F9FA" font-family="Verdana" font-size="11.4583" lengthAdjust="spacing" textLength="51.0417" x="287.5" y="119.4012">id: bigint</text><ellipse cx="273.9583" cy="140.7518" fill="none" rx="3.125" ry="3.125" style="stroke:#2683B9;stroke-width:1.0416666666666667;"/><text fill="#F8F9FA" font-family="Verdana" font-size="11.4583" lengthAdjust="spacing" textLength="82.2917" x="287.5" y="143.1561">blob_id: bigint</text><ellipse cx="273.9583" cy="164.5067" fill="none" rx="3.125" ry="3.125" style="stroke:#2683B9;stroke-width:1.0416666666666667;"/><text fill="#F8F9FA" font-family="Verdana" font-size="11.4583" lengthAdjust="spacing" textLength="136.4583" x="287.5" y="166.9109">variation_digest: string</text><line style="stroke:#2FA4E7;stroke-width:1.0416666666666667;" x1="263.5417" x2="488.5417" y1="178.9883" y2="178.9883"/></g><!--class applies--><g id="elem_applies"><rect codeLine="30" fill="url(#g1nu6c0uu83rl60)" height="217.1224" id="applies" rx="4.1667" ry="4.1667" style="stroke:#2FA4E7;stroke-width:1.0416666666666667;" width="162.5" x="609.375" y="17.7083"/><rect fill="url(#g1nu6c0uu83rl61)" height="34.1715" rx="4.1667" ry="4.1667" style="stroke:url(#g1nu6c0uu83rl61);stroke-width:1.0416666666666667;" width="162.5" x="609.375" y="17.7083"/><rect fill="url(#g1nu6c0uu83rl61)" height="4.1667" style="stroke:url(#g1nu6c0uu83rl61);stroke-width:1.0416666666666667;" width="162.5" x="609.375" y="47.7132"/><rect codeLine="30" fill="none" height="217.1224" id="applies" rx="4.1667" ry="4.1667" style="stroke:#2FA4E7;stroke-width:1.0416666666666667;" width="162.5" x="609.375" y="17.7083"/><ellipse cx="659.8958" cy="34.7941" fill="none" rx="10.4167" ry="10.4167" style="stroke:#2683B9;stroke-width:1.0416666666666667;"/><path d="M662.4349,39.4816 L656.7546,39.4816 L656.7546,30.367 L662.4349,30.367 L662.4349,31.9621 L658.5612,31.9621 L658.5612,33.9152 L662.0605,33.9152 L662.0605,35.5103 L658.5612,35.5103 L658.5612,37.8866 L662.4349,37.8866 L662.4349,39.4816 Z " fill="#FFFFFF"/><text fill="#F8F9FA" font-family="Verdana" font-size="11.4583" lengthAdjust="spacing" textLength="42.7083" x="684.8958" y="38.7609">applies</text><line style="stroke:#2FA4E7;stroke-width:1.0416666666666667;" x1="610.4167" x2="770.8333" y1="51.8799" y2="51.8799"/><ellipse cx="620.8333" cy="69.4865" fill="none" rx="3.125" ry="3.125" style="stroke:#2683B9;stroke-width:1.0416666666666667;"/><text fill="#F8F9FA" font-family="Verdana" font-size="11.4583" lengthAdjust="spacing" textLength="51.0417" x="634.375" y="71.8908">id: bigint</text><text fill="#F8F9FA" font-family="Verdana" font-size="11.4583" lengthAdjust="spacing" textLength="93.75" x="634.375" y="95.6457">application: text</text><text fill="#F8F9FA" font-family="Verdana" font-size="11.4583" lengthAdjust="spacing" textLength="87.5" x="634.375" y="119.4005">status: integer</text><ellipse cx="620.8333" cy="140.7511" fill="none" rx="3.125" ry="3.125" style="stroke:#2683B9;stroke-width:1.0416666666666667;"/><text fill="#F8F9FA" font-family="Verdana" font-size="11.4583" lengthAdjust="spacing" textLength="84.375" x="634.375" y="143.1554">user_id: bigint</text><ellipse cx="620.8333" cy="164.506" fill="none" rx="3.125" ry="3.125" style="stroke:#2683B9;stroke-width:1.0416666666666667;"/><text fill="#F8F9FA" font-family="Verdana" font-size="11.4583" lengthAdjust="spacing" textLength="75" x="634.375" y="166.9103">job_id: bigint</text><ellipse cx="620.8333" cy="188.2609" fill="none" rx="3.125" ry="3.125" style="stroke:#2683B9;stroke-width:1.0416666666666667;"/><text fill="#F8F9FA" font-family="Verdana" font-size="11.4583" lengthAdjust="spacing" textLength="122.9167" x="634.375" y="190.6652">created_at: datetime</text><ellipse cx="620.8333" cy="212.0158" fill="none" rx="3.125" ry="3.125" style="stroke:#2683B9;stroke-width:1.0416666666666667;"/><text fill="#F8F9FA" font-family="Verdana" font-size="11.4583" lengthAdjust="spacing" textLength="126.0417" x="634.375" y="214.4201">updated_at: datetime</text><line style="stroke:#2FA4E7;stroke-width:1.0416666666666667;" x1="610.4167" x2="770.8333" y1="226.4974" y2="226.4974"/></g><!--class jobs--><g id="elem_jobs"><rect codeLine="40" fill="url(#g1nu6c0uu83rl60)" height="217.1224" id="jobs" rx="4.1667" ry="4.1667" style="stroke:#2FA4E7;stroke-width:1.0416666666666667;" width="162.5" x="453.125" y="370.875"/><rect fill="url(#g1nu6c0uu83rl61)" height="34.1715" rx="4.1667" ry="4.1667" style="stroke:url(#g1nu6c0uu83rl61);stroke-width:1.0416666666666667;" width="162.5" x="453.125" y="370.875"/><rect fill="url(#g1nu6c0uu83rl61)" height="4.1667" style="stroke:url(#g1nu6c0uu83rl61);stroke-width:1.0416666666666667;" width="162.5" x="453.125" y="400.8799"/><rect codeLine="40" fill="none" height="217.1224" id="jobs" rx="4.1667" ry="4.1667" style="stroke:#2FA4E7;stroke-width:1.0416666666666667;" width="162.5" x="453.125" y="370.875"/><ellipse cx="512.5" cy="387.9608" fill="none" rx="10.4167" ry="10.4167" style="stroke:#2683B9;stroke-width:1.0416666666666667;"/><path d="M515.0391,392.6483 L509.3587,392.6483 L509.3587,383.5337 L515.0391,383.5337 L515.0391,385.1287 L511.1654,385.1287 L511.1654,387.0819 L514.6647,387.0819 L514.6647,388.6769 L511.1654,388.6769 L511.1654,391.0532 L515.0391,391.0532 L515.0391,392.6483 Z " fill="#FFFFFF"/><text fill="#F8F9FA" font-family="Verdana" font-size="11.4583" lengthAdjust="spacing" textLength="25" x="537.5" y="391.9276">jobs</text><line style="stroke:#2FA4E7;stroke-width:1.0416666666666667;" x1="454.1667" x2="614.5833" y1="405.0465" y2="405.0465"/><ellipse cx="464.5833" cy="422.6532" fill="none" rx="3.125" ry="3.125" style="stroke:#2683B9;stroke-width:1.0416666666666667;"/><text fill="#F8F9FA" font-family="Verdana" font-size="11.4583" lengthAdjust="spacing" textLength="51.0417" x="478.125" y="425.0574">id: bigint</text><text fill="#F8F9FA" font-family="Verdana" font-size="11.4583" lengthAdjust="spacing" textLength="64.5833" x="478.125" y="448.8123">title: string</text><text fill="#F8F9FA" font-family="Verdana" font-size="11.4583" lengthAdjust="spacing" textLength="79.1667" x="478.125" y="472.5672">image: string</text><text fill="#F8F9FA" font-family="Verdana" font-size="11.4583" lengthAdjust="spacing" textLength="87.5" x="478.125" y="496.3221">status: integer</text><text fill="#F8F9FA" font-family="Verdana" font-size="11.4583" lengthAdjust="spacing" textLength="95.8333" x="478.125" y="520.077">description: text</text><ellipse cx="464.5833" cy="541.4276" fill="none" rx="3.125" ry="3.125" style="stroke:#2683B9;stroke-width:1.0416666666666667;"/><text fill="#F8F9FA" font-family="Verdana" font-size="11.4583" lengthAdjust="spacing" textLength="122.9167" x="478.125" y="543.8318">created_at: datetime</text><ellipse cx="464.5833" cy="565.1825" fill="none" rx="3.125" ry="3.125" style="stroke:#2683B9;stroke-width:1.0416666666666667;"/><text fill="#F8F9FA" font-family="Verdana" font-size="11.4583" lengthAdjust="spacing" textLength="126.0417" x="478.125" y="567.5867">updated_at: datetime</text><line style="stroke:#2FA4E7;stroke-width:1.0416666666666667;" x1="454.1667" x2="614.5833" y1="579.6641" y2="579.6641"/></g><!--class users--><g id="elem_users"><rect codeLine="50" fill="url(#g1nu6c0uu83rl60)" height="312.1419" id="users" rx="4.1667" ry="4.1667" style="stroke:#2FA4E7;stroke-width:1.0416666666666667;" width="242.7083" x="652.6042" y="323.3646"/><rect fill="url(#g1nu6c0uu83rl61)" height="34.1715" rx="4.1667" ry="4.1667" style="stroke:url(#g1nu6c0uu83rl61);stroke-width:1.0416666666666667;" width="242.7083" x="652.6042" y="323.3646"/><rect fill="url(#g1nu6c0uu83rl61)" height="4.1667" style="stroke:url(#g1nu6c0uu83rl61);stroke-width:1.0416666666666667;" width="242.7083" x="652.6042" y="353.3695"/><rect codeLine="50" fill="none" height="312.1419" id="users" rx="4.1667" ry="4.1667" style="stroke:#2FA4E7;stroke-width:1.0416666666666667;" width="242.7083" x="652.6042" y="323.3646"/><ellipse cx="747.3958" cy="340.4504" fill="none" rx="10.4167" ry="10.4167" style="stroke:#2683B9;stroke-width:1.0416666666666667;"/><path d="M749.9349,345.1379 L744.2546,345.1379 L744.2546,336.0233 L749.9349,336.0233 L749.9349,337.6183 L746.0612,337.6183 L746.0612,339.5715 L749.5605,339.5715 L749.5605,341.1665 L746.0612,341.1665 L746.0612,343.5428 L749.9349,343.5428 L749.9349,345.1379 Z " fill="#FFFFFF"/><text fill="#F8F9FA" font-family="Verdana" font-size="11.4583" lengthAdjust="spacing" textLength="34.375" x="772.3958" y="344.4171">users</text><line style="stroke:#2FA4E7;stroke-width:1.0416666666666667;" x1="653.6458" x2="894.2708" y1="357.5361" y2="357.5361"/><ellipse cx="664.0625" cy="375.1427" fill="none" rx="3.125" ry="3.125" style="stroke:#2683B9;stroke-width:1.0416666666666667;"/><text fill="#F8F9FA" font-family="Verdana" font-size="11.4583" lengthAdjust="spacing" textLength="51.0417" x="677.6042" y="377.547">id: bigint</text><ellipse cx="664.0625" cy="398.8976" fill="none" rx="3.125" ry="3.125" style="stroke:#2683B9;stroke-width:1.0416666666666667;"/><text fill="#F8F9FA" font-family="Verdana" font-size="11.4583" lengthAdjust="spacing" textLength="75" x="677.6042" y="401.3019">email: string</text><ellipse cx="664.0625" cy="422.6525" fill="none" rx="3.125" ry="3.125" style="stroke:#2683B9;stroke-width:1.0416666666666667;"/><text fill="#F8F9FA" font-family="Verdana" font-size="11.4583" lengthAdjust="spacing" textLength="165.625" x="677.6042" y="425.0568">encrypted_password: string</text><text fill="#F8F9FA" font-family="Verdana" font-size="11.4583" lengthAdjust="spacing" textLength="177.0833" x="677.6042" y="448.8117">reset_password_token: string</text><text fill="#F8F9FA" font-family="Verdana" font-size="11.4583" lengthAdjust="spacing" textLength="206.25" x="677.6042" y="472.5665">reset_password_sent_at: datetime</text><text fill="#F8F9FA" font-family="Verdana" font-size="11.4583" lengthAdjust="spacing" textLength="191.6667" x="677.6042" y="496.3214">remember_created_at: datetime</text><ellipse cx="664.0625" cy="517.672" fill="none" rx="3.125" ry="3.125" style="stroke:#2683B9;stroke-width:1.0416666666666667;"/><text fill="#F8F9FA" font-family="Verdana" font-size="11.4583" lengthAdjust="spacing" textLength="122.9167" x="677.6042" y="520.0763">created_at: datetime</text><ellipse cx="664.0625" cy="541.4269" fill="none" rx="3.125" ry="3.125" style="stroke:#2683B9;stroke-width:1.0416666666666667;"/><text fill="#F8F9FA" font-family="Verdana" font-size="11.4583" lengthAdjust="spacing" textLength="126.0417" x="677.6042" y="543.8312">updated_at: datetime</text><text fill="#F8F9FA" font-family="Verdana" font-size="11.4583" lengthAdjust="spacing" textLength="80.2083" x="677.6042" y="567.5861">avatar: string</text><text fill="#F8F9FA" font-family="Verdana" font-size="11.4583" lengthAdjust="spacing" textLength="76.0417" x="677.6042" y="591.341">name: string</text><text fill="#F8F9FA" font-family="Verdana" font-size="11.4583" lengthAdjust="spacing" textLength="72.9167" x="677.6042" y="615.0958">role: integer</text><line style="stroke:#2FA4E7;stroke-width:1.0416666666666667;" x1="653.6458" x2="894.2708" y1="627.1732" y2="627.1732"/></g><!--link active_storage_attachments to active_storage_blobs--><g id="link_active_storage_attachments_active_storage_blobs"><path codeLine="64" d="M150.9063,223.2396 C162.4271,261.3125 175.8646,305.7188 188.2708,346.7083 " fill="none" id="active_storage_attachments-active_storage_blobs" style="stroke:#2FA4E7;stroke-width:3.125;"/><text fill="#343A40" font-family="Verdana" font-size="12.5" lengthAdjust="spacing" textLength="62.5" x="175" y="283.9257">{blob_id}</text></g><!--link active_storage_variant_records to active_storage_blobs--><g id="link_active_storage_variant_records_active_storage_blobs"><path codeLine="65" d="M350.6146,187.6667 C332.1979,231.3854 306.5833,292.1667 283.5417,346.8646 " fill="none" id="active_storage_variant_records-active_storage_blobs" style="stroke:#2FA4E7;stroke-width:3.125;"/><text fill="#343A40" font-family="Verdana" font-size="12.5" lengthAdjust="spacing" textLength="62.5" x="321.875" y="283.9257">{blob_id}</text></g><!--link applies to jobs--><g id="link_applies_jobs"><path codeLine="66" d="M642.6875,235.0313 C623.5313,278.0625 601.5208,327.5313 582.3646,370.5729 " fill="none" id="applies-jobs" style="stroke:#2FA4E7;stroke-width:3.125;"/><text fill="#343A40" font-family="Verdana" font-size="12.5" lengthAdjust="spacing" textLength="54.1667" x="633.3333" y="283.9257">{job_id}</text></g><!--link applies to users--><g id="link_applies_users"><path codeLine="67" d="M716.1979,235.0313 C722.7917,262.8438 730.0313,293.3542 737.0938,323.0729 " fill="none" id="applies-users" style="stroke:#2FA4E7;stroke-width:3.125;"/><text fill="#343A40" font-family="Verdana" font-size="12.5" lengthAdjust="spacing" textLength="63.5417" x="733.3333" y="283.9257">{user_id}</text></g><!--SRC=[dLJHSeCW47ptAsWUEvCVy6SSnAiv8-Z0QMio-VSUQZA4O9hq3TpZsDrR_A03Q10AxD22D5a6Xf0ciPEAS8J2KMTb3OKaakgW6NKx8PtOXiKv4-8JgroKMACXlpDIGouSMJIrtrjGdQqAclhKv_kpPTkLqITbGH9KV6ikAbuHQiWkcznzXoJh6KZnFS8Kylh25Y89gZF4ryKID91aHZ8N13zpAmTsH0L5R44v4HF14mJtgWEeenjqMFUcrb5QbCnhiJAfEYf9wKzuFfyYx4nHOGsERXn3BdtV8goNBkj4znbHSw-RJOua3IuNN04rM7zcOESY3irhIV27- -gfQyqr4Kqw0LpLXkD2pSu5-qU-5JXbiRzJzMzwNll2RrwbHWHQOXi61OooK- -xzjAvRnvjW5fmG3UWeEu8PXjsFjaHPyk_2LtoIBOqlQMLKp3oCx41X-Y1sCuFuEelU_FaZxFV9rzsBivha2_P7s_WbGvheBcqMQ3c4Pd7nT0Qtals2m00]--></g></svg>